
<svg version="1.1" id="Layer_1" xmlns="http://www.w3.org/2000/svg" xmlns:xlink="http://www.w3.org/1999/xlink" x="0px" y="0px"
	 viewBox="0 0 64 64" style="enable-background:new 0 0 64 64;" xml:space="preserve">
<g>
	<g>
		<path d="M62.5,41.4c0.2-1.1,0.2-2.7-0.6-4.3c-1-1.9-2.9-3.2-5.6-3.8c-8-1.8-15.5-5.4-20.5-9.8c-0.5-0.4-1-1-1.6-1.5l0.9-0.6
			L28.7,12l-1.8,1.2c0,0,0-0.1-0.1-0.1c-2.1-2.8-6-3.4-8.8-1.4L5.9,20.7c-2.8,2.1-4.5,5.4-4.5,8.9l0,11.8C0.5,42.7,0,44.2,0,45.8
			c0,4.2,3.4,7.6,7.6,7.6h36.1c5.7,0,11.3-1,16.7-3c2.2-0.8,3.6-2.9,3.6-5.2C64,43.8,63.4,42.4,62.5,41.4z M32.3,26l-3.1,5.1
			l3.6,2.2l2.8-4.6c0.5,0.3,0.9,0.7,1.4,1l-2.8,4.5l3.5,2.2l2.9-4.5c0.5,0.3,1.1,0.6,1.7,0.9l-2.8,4.5l3.5,2.2l3.1-5
			c3,1.2,6.1,2.2,9.3,2.9c1,0.2,2.3,0.7,2.8,1.6c0.1,0.2,0.2,0.4,0.2,0.7c-0.3,0-0.6,0-0.9,0.1l0,0c-0.7,0.1-1.3,0.2-1.9,0.3
			L47.7,41c-5.2,0.6-10.3,0.3-15.4-0.8l-2.9-0.7c-3.3-0.8-6.7-1.2-10.1-1.2l-6-3.9c-0.7-0.4-1-1.1-1-1.9c0-0.9,0.6-1.8,1.4-2.1
			l2.9-1.2l2.3,3.3l11.7-8C31.2,25,31.8,25.5,32.3,26z M27.6,17.8l1.7,2.5L20,26.6l-1.7-2.5L27.6,17.8z M8.4,24.1l12.2-8.9
			c0.9-0.7,2.2-0.5,2.9,0.4l-10.9,7.5l1.7,2.5l-2.1,0.9c-2.4,1-4,3.4-4,6c0,2.2,1.1,4.2,2.9,5.4l0.6,0.4H7.6c-0.7,0-1.4,0.1-2,0.3
			l0-8.9C5.6,27.4,6.6,25.4,8.4,24.1z M58.9,46.5c-4.9,1.8-10,2.7-15.2,2.7H7.6c-1.9,0-3.4-1.5-3.4-3.4s1.5-3.4,3.4-3.4h10.6
			c3.4,0,6.9,0.4,10.3,1.2l2.9,0.7c5.5,1.3,11.2,1.6,16.8,0.9l7.9-0.9c0.7-0.1,1.4-0.2,2.1-0.3l0,0c0.4-0.1,0.8,0,1.1,0.3
			c0.2,0.2,0.5,0.5,0.5,1.1C59.8,45.8,59.5,46.3,58.9,46.5z"/>
	</g>
</g>
</svg>
